<svg version="1.1" id="Layer_1" xmlns="http://www.w3.org/2000/svg" xmlns:xlink="http://www.w3.org/1999/xlink" x="0px" y="0px"
	 width="100%" viewBox="0 0 512 512" enable-background="new 0 0 512 512" xml:space="preserve">
<path fill="#000000" opacity="1.000000" stroke="none" 
	d="
M162.020920,339.981659 
	C169.030075,342.308167 176.042725,344.624329 183.045731,346.969208 
	C184.617325,347.495422 186.118271,348.440674 187.717575,348.626556 
	C190.008713,348.892822 192.917664,350.333405 194.352020,347.312653 
	C195.350311,345.210297 191.708130,341.659149 188.443176,341.362518 
	C185.933243,341.134491 183.566116,340.860504 182.676682,337.904022 
	C185.006485,336.136047 186.886261,339.116791 189.001312,338.067169 
	C189.735016,336.512878 188.785629,335.165100 188.312119,333.827637 
	C181.868637,315.627594 182.788132,297.885590 189.241669,279.620544 
	C191.376358,273.578888 193.598969,268.992859 198.105865,264.556732 
	C202.908905,259.829163 206.973373,254.289856 211.944305,250.383926 
	C212.318390,247.403061 208.980942,247.788879 208.938858,245.319016 
	C215.395142,241.752701 224.102600,246.824020 229.605759,240.210785 
	C231.996292,240.843369 230.381149,243.545303 232.605850,244.405792 
	C235.485901,243.646103 236.577332,242.315292 233.913300,239.436386 
	C232.199310,237.584167 230.260727,236.160065 227.967590,235.136963 
	C224.671432,233.666306 221.959564,231.430710 220.413757,228.147934 
	C218.364212,223.795425 215.336655,223.657639 211.334686,225.238281 
	C202.809509,228.605423 197.359924,235.278091 193.133102,244.304962 
	C197.432678,245.828751 202.050766,243.737823 207.715500,245.889450 
	C203.171066,248.389542 199.319519,248.379425 195.612885,248.109604 
	C191.540802,247.813187 187.690887,247.547379 184.782898,251.132294 
	C180.480789,256.435822 176.126266,261.688507 172.573395,267.560486 
	C163.674011,282.268951 155.920975,297.553040 149.244247,313.390167 
	C147.104950,318.464539 147.081314,318.454559 149.309631,323.745270 
	C143.580963,325.146210 143.152100,330.416626 141.754303,334.880005 
	C138.621796,344.882477 135.826584,354.990234 132.850739,365.042328 
	C132.134659,367.461121 132.100815,369.667908 134.232742,371.404907 
	C137.803558,374.314209 137.911194,377.476288 134.975510,380.868988 
	C132.074875,384.221130 126.254494,385.386261 123.252884,382.805695 
	C119.728134,379.775299 116.197395,376.602448 113.364990,372.951630 
	C109.240059,367.634827 112.484909,360.596466 119.099236,360.866852 
	C124.729828,361.097015 125.701401,358.041718 126.630325,353.832245 
	C129.545349,340.622711 130.222595,327.065521 134.362823,313.983459 
	C140.463684,294.706268 147.871796,276.067047 156.922974,258.026428 
	C158.022934,255.833954 159.847733,255.044876 162.409866,254.205673 
	C160.014420,252.030838 160.365814,249.854416 161.661560,247.447479 
	C165.685516,239.972794 169.548187,232.411469 173.520737,224.908813 
	C174.292908,223.450470 175.368317,222.133560 174.985031,220.235916 
	C173.009796,218.576599 170.953110,219.491638 168.900131,220.058395 
	C142.403152,227.373627 116.177658,235.489807 90.862808,246.324524 
	C89.428940,246.938217 88.327469,247.730164 87.300125,248.891968 
	C81.719872,255.202515 71.762360,256.714966 64.520706,252.447678 
	C59.634838,249.568588 57.309784,241.146652 59.555222,233.955078 
	C62.235405,234.980331 60.423359,238.051880 62.106697,239.409546 
	C62.390320,239.422333 62.949173,239.521820 62.978008,239.438309 
	C66.391205,229.551224 75.339615,230.912506 82.906334,229.865448 
	C86.990646,229.300278 91.217445,229.764862 95.214172,229.764862 
	C98.787827,222.422318 108.451347,225.011292 112.922684,218.689957 
	C104.111855,219.655838 95.932175,223.214157 87.172722,224.151459 
	C78.297577,225.101105 69.373871,226.466705 61.238510,231.594421 
	C60.654701,229.481781 60.277260,228.115921 59.754543,226.224335 
	C45.503906,229.104935 31.262978,230.054337 16.953989,230.839279 
	C16.723934,227.752243 18.574583,227.634430 19.796045,227.082397 
	C28.900845,222.967590 38.048069,218.946777 47.162369,214.852814 
	C51.157566,213.058243 55.290150,211.710159 59.683323,211.833084 
	C63.332474,211.935196 65.318336,210.423996 65.973022,206.902786 
	C66.245796,205.435699 66.552185,203.954391 67.052223,202.554153 
	C68.242760,199.220276 70.190948,196.484329 74.104721,196.456329 
	C77.943008,196.428864 80.028038,199.382660 80.497009,202.450027 
	C81.276466,207.548126 83.597145,207.276840 87.938324,206.944412 
	C99.714310,206.042633 111.701286,204.962006 123.345894,206.264786 
	C131.718781,207.201508 137.528595,203.235825 144.286179,200.665939 
	C144.892502,200.435349 145.521103,200.223495 146.157883,200.132339 
	C146.415222,200.095505 146.722305,200.406250 147.243515,200.685822 
	C147.288696,205.593369 139.845566,202.983505 139.957077,208.477448 
	C144.169266,209.103836 147.369476,205.887985 151.096786,204.952087 
	C156.733459,203.536789 162.446426,202.002258 167.272720,198.353439 
	C169.653259,196.553680 169.923874,199.903290 171.725281,200.738998 
	C171.299759,193.033691 178.852173,194.647812 182.253647,191.318970 
	C184.166931,189.446503 187.245956,188.761658 189.805634,187.554123 
	C193.497711,185.812363 193.395813,183.550095 190.628586,181.046143 
	C187.256897,177.995239 183.247803,175.839218 179.211823,173.923019 
	C163.409561,166.420471 147.239883,159.763565 130.859314,153.624664 
	C124.550896,151.260498 118.196014,149.660370 111.390717,151.660309 
	C108.493698,152.511673 105.446251,152.208176 102.462944,151.644547 
	C96.621033,150.540833 90.956917,148.346664 89.338936,142.295944 
	C87.443108,135.206146 83.955803,127.352524 91.759872,121.121323 
	C92.125832,120.829124 92.400246,120.329910 92.547684,119.872437 
	C93.179840,117.911079 95.870430,116.389954 94.431160,114.050491 
	C92.921249,111.596207 90.360176,113.148697 88.457901,113.509247 
	C77.460106,115.593727 66.258293,115.526978 55.200008,116.902847 
	C54.249077,117.021156 53.160061,117.153282 52.634666,115.958488 
	C52.630932,114.582306 53.833954,114.430733 54.662476,114.117950 
	C65.721855,109.942825 76.798775,105.813919 87.882103,101.702583 
	C90.252861,100.823166 92.736122,100.626228 95.259331,100.635750 
	C98.046837,100.646271 99.456535,99.544418 99.265907,96.365898 
	C99.064461,93.007103 100.116768,89.956665 102.484016,87.230637 
	C106.549789,82.548653 111.523842,82.568932 113.621948,88.277809 
	C115.494453,93.372833 117.925423,93.024826 122.261719,91.938271 
	C133.383499,89.151474 144.666077,87.000801 155.904343,84.693207 
	C157.027802,84.462524 158.458115,83.524872 159.566833,85.136078 
	C158.864273,86.940132 157.061859,87.164146 155.621704,87.715294 
	C144.895401,91.820305 134.264923,96.200531 123.215057,99.404716 
	C120.053902,100.321365 117.495216,101.411392 119.197784,105.573364 
	C119.812241,107.075432 120.027863,108.818558 120.071548,110.461090 
	C120.186264,114.775360 119.850014,119.154266 125.366386,120.766075 
	C126.274292,121.031349 127.098015,122.324455 126.529518,124.083427 
	C123.277695,123.237747 119.641907,122.160835 119.270866,127.550682 
	C118.812180,134.213791 120.759392,137.324905 125.925125,137.869614 
	C133.299713,138.647217 139.974411,141.934143 147.058563,143.758347 
	C150.118668,144.546326 153.073120,145.755310 156.143143,146.491089 
	C159.254959,147.236877 161.923096,147.297165 162.896591,142.971863 
	C163.789749,139.003448 163.258698,136.497437 159.008286,135.504745 
	C155.928329,134.785416 152.830505,134.097931 149.820007,133.145447 
	C148.388641,132.692581 146.402008,132.886703 145.407333,129.683914 
	C163.037399,132.876816 179.560471,137.623154 195.985046,143.003311 
	C188.748047,145.927765 181.957169,140.365936 173.523956,141.933197 
	C179.233673,145.748230 184.945175,146.078751 189.844284,148.690018 
	C193.997528,150.903732 200.304077,149.732590 204.209137,154.986893 
	C205.406174,153.387375 207.119736,152.714890 209.225128,153.671356 
	C209.653122,153.865784 210.473190,154.014084 210.663589,153.794449 
	C214.871826,148.940063 219.324738,152.849670 223.623947,153.464752 
	C226.597565,153.890182 229.223633,153.685577 231.095642,151.424347 
	C233.289368,151.492050 231.964081,153.508621 233.087280,154.097076 
	C234.593658,154.288864 235.359818,153.026077 236.346710,152.223801 
	C248.334244,142.478928 261.273956,142.321899 273.269531,151.841232 
	C274.738434,153.006912 276.294403,153.426483 278.153473,153.835678 
	C283.816498,155.082153 288.869324,152.958878 294.132263,151.850281 
	C296.590729,151.332443 299.218658,150.732132 299.177643,156.020218 
	C302.648560,151.755096 306.993622,154.927887 310.542023,151.756378 
	C313.738647,148.899277 319.298431,149.533585 322.929932,147.342575 
	C326.683258,145.078094 331.604309,146.122864 334.838226,142.153702 
	C328.412384,140.003021 322.789185,145.960358 316.469299,143.794006 
	C319.372620,140.146225 354.240112,131.021729 360.390076,132.580368 
	C353.084564,136.444992 344.885895,136.115814 338.553467,140.639893 
	C340.872620,141.321548 342.522522,144.026550 345.427338,141.165405 
	C347.665833,138.960571 348.943451,141.559036 349.113220,143.679764 
	C349.378510,146.993118 350.603241,147.996582 353.967468,147.022919 
	C364.961639,143.841110 376.019775,140.879501 387.063965,137.872284 
	C389.400909,137.235977 391.421875,136.493973 392.117676,133.723389 
	C392.695831,131.421371 394.999908,130.394196 396.841187,130.937759 
	C404.736725,133.268600 413.600189,129.424683 420.826447,135.779175 
	C422.473267,131.990189 421.870483,129.129944 421.252808,125.815422 
	C417.770966,127.157066 414.616791,127.587456 412.628296,123.695221 
	C412.065948,122.594490 410.862457,122.542458 409.544861,122.821571 
	C406.384247,123.491089 402.992889,124.783684 401.198914,120.313385 
	C400.702881,119.077339 399.163818,119.653008 398.009430,119.829239 
	C396.235321,120.100090 394.580566,121.163849 393.080719,120.807930 
	C390.679626,114.737053 392.502686,109.010765 393.834259,103.366440 
	C394.681122,99.776627 393.436340,98.870995 390.224426,97.986427 
	C376.914948,94.320953 363.690674,90.343727 350.459106,86.400444 
	C348.853638,85.921974 346.774567,85.997711 345.782196,83.373001 
	C350.819550,82.646645 355.459808,84.047554 359.947296,84.933823 
	C371.028595,87.122330 382.571228,86.444069 393.345551,90.412811 
	C395.001251,91.022690 396.167694,90.472855 396.970154,88.800583 
	C398.522400,85.565804 400.889893,83.284363 404.776520,83.777695 
	C408.557007,84.257553 410.713501,87.156174 411.606293,90.318596 
	C412.762695,94.414665 414.728638,95.161201 418.520966,94.063141 
	C421.824585,93.106575 425.146149,94.395203 428.336273,95.210892 
	C439.942230,98.178421 451.500061,101.334465 463.075287,104.422211 
	C464.495117,104.800964 465.945587,105.131294 468.069977,107.422760 
	C450.002747,108.625229 433.128479,109.118164 416.182068,106.761864 
	C414.924103,113.266243 418.050598,117.874542 421.767700,122.109596 
	C428.123810,129.351425 425.432434,144.548370 416.881439,149.048462 
	C410.861877,152.216354 404.552490,153.140503 398.017670,151.225281 
	C394.305237,150.137268 390.791077,150.424606 387.248444,151.631714 
	C366.583862,158.672775 346.351044,166.743484 327.077728,177.067993 
	C324.887909,178.241058 322.871979,179.751877 320.831543,181.185928 
	C319.618042,182.038803 318.514221,183.047714 317.477875,183.891434 
	C318.704437,186.582504 320.796051,187.031250 322.536407,187.739258 
	C327.837219,189.895706 332.423615,193.593170 338.121887,194.880600 
	C339.682648,195.233215 340.116608,196.477097 340.109070,197.938828 
	C340.098907,199.901260 340.051788,201.873474 341.005981,203.965317 
	C343.775879,202.370911 341.636414,199.702606 343.082214,197.633682 
	C358.916809,203.250290 374.625397,209.207047 390.052826,217.561203 
	C393.960388,214.888596 397.056000,219.723709 400.919891,220.788788 
	C405.768890,222.125443 410.287933,224.663651 414.941345,226.701660 
	C415.845398,227.097610 417.198700,227.356873 417.516235,228.055664 
	C419.281372,231.939941 422.398254,230.728104 425.255676,230.291275 
	C430.556671,229.480881 435.844757,229.259369 441.155853,230.125290 
	C446.253845,230.956451 449.196320,234.325592 450.662384,239.037155 
	C453.614410,237.698761 451.808228,234.896301 453.437622,233.653214 
	C454.319153,233.353943 454.852905,233.841385 455.016449,234.463715 
	C456.467194,239.983887 453.425751,249.904343 449.649597,252.141296 
	C443.465881,255.804474 432.849030,255.734543 428.487579,250.955811 
	C425.467133,247.646347 421.824615,246.505096 418.141479,244.784286 
	C396.916229,234.867523 374.338196,228.947113 352.052399,222.159378 
	C349.189148,221.287308 346.281433,220.560974 343.391876,219.776062 
	C341.611786,219.292526 339.836731,218.980225 338.185608,219.893692 
	C337.220551,222.193863 338.874146,223.527283 339.697021,225.039581 
	C358.421631,259.452026 374.777161,294.810181 383.831451,333.188232 
	C385.508423,340.296234 384.431244,347.663635 386.822174,354.705261 
	C388.135468,358.573120 389.066986,361.509094 394.070679,360.733856 
	C397.157990,360.255493 399.600739,362.026917 400.897278,364.818268 
	C402.337555,367.919037 402.169220,371.207275 399.773193,373.708862 
	C396.558258,377.065399 393.109283,380.247284 389.460388,383.122986 
	C386.552216,385.414917 381.334656,384.185944 378.661346,380.993011 
	C376.008118,377.824097 375.794739,374.611542 379.082214,371.775940 
	C381.307068,369.856903 381.517395,367.855103 380.668091,365.137817 
	C377.541260,355.133575 374.669556,345.049896 371.616638,335.022003 
	C370.957306,332.856354 370.567474,330.447968 367.919373,328.774353 
	C363.767700,333.608612 359.008972,337.885590 354.276794,342.189514 
	C348.684814,347.275452 342.354309,348.993561 335.334656,350.627075 
	C326.217377,352.748688 316.478424,353.056702 308.239105,358.338562 
	C305.744049,359.938019 303.132904,361.500519 304.798157,365.705200 
	C300.196533,364.812317 297.430939,367.464783 294.261932,369.129364 
	C267.693848,383.084961 241.475876,383.306763 215.677353,367.102905 
	C212.547394,365.136963 209.972855,362.526611 207.219482,360.111542 
	C199.160767,353.042908 189.830246,352.078949 180.055939,355.285919 
	C174.213608,357.202759 170.540680,355.847504 169.671906,349.566071 
	C169.001877,344.721649 164.040634,344.157562 162.153000,340.313354 
	C162.000427,340.000366 162.020920,339.981659 162.020920,339.981659 
M324.877686,284.789246 
	C327.479553,289.970062 326.228790,297.375824 334.638641,300.116364 
	C328.211029,299.985657 329.204315,304.017090 329.214752,307.219086 
	C329.259369,320.904297 325.680420,333.529510 318.514160,345.172302 
	C317.596130,346.663788 316.199615,348.101135 317.266998,350.648224 
	C325.169586,349.987701 332.623901,347.489838 339.931763,344.347839 
	C344.344879,342.450470 348.200714,338.707062 352.525604,337.753998 
	C358.562958,336.423615 361.222046,332.281006 364.514618,328.316132 
	C367.375549,324.870972 367.411804,321.049866 365.628479,317.076355 
	C363.383209,312.073425 361.213531,307.036438 358.948242,302.042725 
	C350.944763,284.399231 341.906891,267.366638 329.357849,252.436600 
	C328.231049,251.096024 327.348114,249.687820 325.013580,249.645447 
	C318.878113,249.534073 312.752777,248.917969 306.620087,248.560760 
	C304.871918,248.458954 302.910339,247.896591 301.388550,250.658081 
	C311.480743,259.977936 319.914429,270.765106 324.877686,284.789246 
M282.474670,239.559174 
	C294.605682,248.288345 308.782928,244.247681 322.791565,247.085831 
	C320.941315,242.305161 317.937866,240.041443 315.837738,237.149841 
	C311.917542,231.752197 307.345856,227.055145 300.737396,224.939377 
	C297.161560,223.794525 294.070740,223.283966 292.460754,228.086624 
	C291.090881,232.173050 287.251373,233.879196 283.494598,235.420395 
	C281.828217,236.104034 279.979523,236.434677 278.671387,237.881897 
	C276.308319,240.496185 276.996216,242.470093 280.544189,243.460068 
	C282.670990,242.681778 280.146790,240.518036 282.474670,239.559174 
M194.939301,321.736969 
	C193.473404,317.483276 194.805359,312.213989 192.085022,308.761810 
	C187.737061,303.244141 190.894104,297.343811 193.017731,294.222565 
	C196.687439,288.828949 195.306229,283.409698 197.111099,277.941895 
	C193.557724,277.759094 192.749710,280.057892 191.880737,282.129181 
	C186.846024,294.130127 186.064590,306.659363 187.803757,319.361847 
	C189.252625,329.943909 193.565964,339.425720 200.081375,347.898407 
	C201.640915,349.926392 203.195602,351.863678 206.074097,350.352753 
	C206.586563,348.631775 205.728760,347.514160 204.965530,346.472931 
	C201.675232,341.984161 197.445038,338.413239 196.483017,332.084290 
	C196.020752,329.043030 194.699753,325.952209 194.939301,321.736969 
M321.111237,294.502747 
	C321.004120,297.134918 318.060547,297.250977 316.787659,299.266510 
	C319.223877,301.119415 318.624359,303.414673 317.992737,305.942688 
	C315.384705,316.381165 311.981201,326.858795 317.717346,337.406342 
	C325.943939,328.425568 328.881256,298.583679 322.235352,291.173065 
	C321.231964,291.798859 321.347656,292.857971 321.111237,294.502747 
M109.977592,212.099808 
	C103.341103,213.920044 96.508942,214.052322 89.709320,214.538239 
	C87.679756,214.683273 85.597450,215.368759 85.844009,218.115448 
	C86.034554,220.238113 87.485863,220.667740 89.414032,220.624771 
	C95.446198,220.490295 110.908417,215.265869 116.065796,211.324005 
	C114.324432,212.251419 112.452087,211.556686 109.977592,212.099808 
M96.952835,132.979324 
	C101.404945,130.978500 106.371460,132.261292 110.862946,131.129059 
	C110.485085,129.044952 110.134354,127.284462 109.854904,125.512733 
	C109.640816,124.155334 109.374367,122.866074 107.787560,122.481972 
	C106.051743,122.061821 105.521019,123.221214 104.982826,124.543022 
	C103.476784,128.241898 100.551170,129.105225 96.911583,128.394012 
	C92.039772,127.442001 89.906998,129.879471 91.238945,135.307236 
	C92.923584,134.620102 94.573448,133.947144 96.952835,132.979324 
M130.210724,210.136108 
	C126.351212,211.871536 122.043121,212.760925 118.077629,215.827286 
	C124.097069,217.383621 130.812256,214.662842 133.402527,210.016006 
	C132.452469,210.016006 131.664932,210.016006 130.210724,210.136108 
M408.375732,92.423096 
	C409.942810,89.244507 407.575684,88.404976 405.404114,87.982941 
	C402.200989,87.360435 399.694305,88.371246 398.741333,92.320320 
	C401.997314,92.584068 404.950287,91.506523 408.375732,92.423096 
M111.606339,90.456573 
	C107.550072,86.401482 104.376564,86.911041 102.827766,92.512428 
	C105.876350,90.748619 109.179771,94.452255 111.606339,90.456573 
M294.432587,251.012070 
	C293.714996,251.386444 292.948059,251.690048 292.289398,252.148987 
	C290.589172,253.333679 289.877533,254.893234 290.911316,256.865143 
	C291.423218,257.841583 292.330872,258.393372 293.391022,257.797607 
	C295.161133,256.802917 296.912964,255.636154 296.345306,253.187881 
	C296.175629,252.456024 295.462402,251.850204 294.432587,251.012070 
z"/>
<path fill="#000000" opacity="1.000000" stroke="none" 
	d="
M433.504578,201.552795 
	C435.177673,197.977997 437.367828,195.334885 441.252380,195.935791 
	C445.224731,196.550262 446.922729,199.564041 447.425476,203.394348 
	C447.808685,206.313705 448.639374,209.566345 452.200684,209.388138 
	C463.032135,208.846176 471.355011,215.536758 480.811432,218.884247 
	C484.890564,220.328247 489.313141,221.351273 492.820526,224.729706 
	C479.418976,225.103836 466.145172,226.010696 453.153961,224.655640 
	C451.159363,226.788437 454.121155,229.211502 451.903046,231.159409 
	C442.758911,225.122803 431.962708,225.064499 421.637512,223.209518 
	C414.551178,221.936417 407.938019,219.125748 401.065155,217.182587 
	C392.589783,214.786331 385.199249,209.647705 376.509857,207.816727 
	C374.434540,207.379440 372.609619,206.082901 371.863983,204.007263 
	C372.140961,202.963318 372.849854,202.725357 373.458160,202.968826 
	C387.077850,208.420609 400.980957,203.254242 414.730560,204.015106 
	C419.335419,204.269943 424.028870,203.105804 428.626465,204.345795 
	C431.064362,205.003326 432.440582,203.996628 433.504578,201.552795 
M427.317108,219.458557 
	C418.490234,218.050217 410.458923,213.473557 401.358948,213.121292 
	C409.534851,216.913681 417.679840,220.804276 427.317108,219.458557 
z"/>
<path fill="#000000" opacity="1.000000" stroke="none" 
	d="
M290.880951,142.128159 
	C282.055511,143.585434 273.985626,139.338013 265.348328,138.751907 
	C253.223068,137.929123 241.512451,139.019669 229.768799,141.778488 
	C224.825516,142.939743 219.955948,144.076569 215.265945,146.089111 
	C213.131378,147.005081 210.603180,147.860443 208.400131,145.943130 
	C208.765854,144.499619 209.814377,143.992340 210.700623,144.012009 
	C218.288162,144.180481 223.163300,137.397156 230.309570,136.440674 
	C231.500504,136.281281 232.267319,135.192261 232.350403,133.890503 
	C232.433792,132.584290 233.092545,131.729156 234.230316,131.180695 
	C245.281631,125.853462 256.620300,123.018021 268.647949,127.682739 
	C272.692932,129.251526 278.132019,128.627502 279.793732,134.461975 
	C279.927582,134.932053 282.736603,133.976166 284.315216,135.185928 
	C286.696014,137.010452 289.221527,138.618729 290.912506,141.626801 
	C291.003693,141.994827 290.880951,142.128159 290.880951,142.128159 
z"/>
<path fill="#000000" opacity="1.000000" stroke="none" 
	d="
M354.918152,198.240051 
	C344.999756,192.836945 334.609070,189.051376 325.570435,182.836853 
	C325.857605,182.257385 326.144775,181.677917 326.431946,181.098450 
	C338.973328,186.976746 351.514709,192.855042 364.835846,199.098846 
	C360.561829,201.840820 358.100769,198.652832 354.918152,198.240051 
z"/>
<path fill="#000000" opacity="1.000000" stroke="none" 
	d="
M180.082611,187.167130 
	C170.260025,192.576462 160.427231,197.034836 150.357925,200.938263 
	C150.025604,200.227631 149.693298,199.516998 149.360977,198.806366 
	C161.349472,193.017883 173.337967,187.229416 186.217529,181.010696 
	C184.598618,184.673233 184.598618,184.673233 180.082611,187.167130 
z"/>
<path fill="#000000" opacity="1.000000" stroke="none" 
	d="
M139.971802,130.561951 
	C135.568893,129.961578 131.585297,129.294189 127.154778,125.607483 
	C133.139145,125.308907 137.290695,127.195587 141.365524,128.856400 
	C142.573120,129.348618 141.506668,130.441727 139.971802,130.561951 
z"/>
<path fill="#000000" opacity="1.000000" stroke="none" 
	d="
M379.670654,125.783920 
	C381.115631,125.618530 382.200073,124.630951 383.836517,126.254486 
	C379.761353,129.953278 374.661621,129.365997 370.048676,130.322632 
	C372.239868,126.792366 376.191895,127.256264 379.670654,125.783920 
z"/>
<path fill="#000000" opacity="1.000000" stroke="none" 
	d="
M291.064789,141.927917 
	C295.578247,142.790268 300.147797,143.320160 304.514313,145.495758 
	C300.658142,147.724503 295.446777,146.550766 291.030090,142.445557 
	C290.880951,142.128159 291.003693,141.994827 291.064789,141.927917 
z"/>
<path fill="#000000" opacity="1.000000" stroke="none" 
	d="
M161.991013,340.010529 
	C156.970840,339.271515 153.311584,336.417664 152.415817,331.908783 
	C155.279678,334.890381 160.207657,334.872406 162.076416,339.600586 
	C162.020920,339.981659 162.000427,340.000366 161.991013,340.010529 
z"/>
<path fill="#000000" opacity="1.000000" stroke="none" 
	d="
M198.924118,144.685059 
	C201.626205,141.613739 203.511581,144.015274 206.166794,145.626556 
	C203.173706,147.501862 201.101456,146.361847 198.924118,144.685059 
z"/>
<path fill="#000000" opacity="1.000000" stroke="none" 
	d="
M312.915466,143.470825 
	C311.968262,147.406769 309.267242,146.449875 305.938843,146.094254 
	C308.009644,143.410858 310.291656,143.188156 312.915466,143.470825 
z"/>
<path fill="#000000" opacity="1.000000" stroke="none" 
	d="
M331.954956,341.724274 
	C330.586517,342.282990 329.538239,343.009125 328.091949,341.548279 
	C331.907288,338.978882 335.941040,337.348907 340.983673,335.875488 
	C338.954285,340.237915 335.225220,340.284637 331.954956,341.724274 
z"/>
</svg>